<svg width="289" height="88" viewBox="0 0 289 88" fill="none" xmlns="http://www.w3.org/2000/svg">
<g filter="url(#filter0_d_278_3021)">
<path d="M8.99609 11.8619C8.47077 8.24311 11.2771 5 14.9339 5L273.23 5C276.83 5 279.619 8.14717 279.187 11.7206L273.139 61.7206C272.774 64.7336 270.217 67 267.182 67H208.625H176.688H163.442C161.649 67 159.879 67.4016 158.262 68.1754L144 75L131.403 68.3781C129.681 67.473 127.765 67 125.819 67H112.812H80.875H22.1919C19.2112 67 16.6824 64.8118 16.2542 61.8619L8.99609 11.8619Z" fill="white"/>
</g>
<defs>
<filter id="filter0_d_278_3021" x="0.0296879" y="0.1" width="288.105" height="87.8" filterUnits="userSpaceOnUse" color-interpolation-filters="sRGB">
<feFlood flood-opacity="0" result="BackgroundImageFix"/>
<feColorMatrix in="SourceAlpha" type="matrix" values="0 0 0 0 0 0 0 0 0 0 0 0 0 0 0 0 0 0 127 0" result="hardAlpha"/>
<feOffset dy="4"/>
<feGaussianBlur stdDeviation="4.45"/>
<feComposite in2="hardAlpha" operator="out"/>
<feColorMatrix type="matrix" values="0 0 0 0 0 0 0 0 0 0 0 0 0 0 0 0 0 0 0.09 0"/>
<feBlend mode="normal" in2="BackgroundImageFix" result="effect1_dropShadow_278_3021"/>
<feBlend mode="normal" in="SourceGraphic" in2="effect1_dropShadow_278_3021" result="shape"/>
</filter>
</defs>
</svg>
